<?xml version="1.0" standalone="no"?><!DOCTYPE svg PUBLIC "-//W3C//DTD SVG 1.1//EN" "http://www.w3.org/Graphics/SVG/1.1/DTD/svg11.dtd"><svg width="100%" height="100%" viewBox="0 0 25 25" version="1.1" xmlns="http://www.w3.org/2000/svg" xmlns:xlink="http://www.w3.org/1999/xlink" xml:space="preserve" style="fill-rule:evenodd;clip-rule:evenodd;stroke-linejoin:round;stroke-miterlimit:1.41421;"><path id="dangerIcon" d="M12.5,0c-6.9,0 -12.5,5.6 -12.5,12.5c0,6.9 5.6,12.5 12.5,12.5c6.9,0 12.5,-5.6 12.5,-12.5c0,-6.9 -5.6,-12.5 -12.5,-12.5ZM3.954,4.814c-1.835,2.038 -2.954,4.734 -2.954,7.686c0,6.34 5.16,11.5 11.5,11.5c2.952,0 5.648,-1.119 7.686,-2.954l-0.09,-0.09l-16.142,-16.142ZM4.655,4.1c2.056,-1.922 4.816,-3.1 7.845,-3.1c6.34,0 11.5,5.16 11.5,11.5c0,3.029 -1.178,5.789 -3.1,7.845l-0.097,-0.096l-16.148,-16.149Z" style="fill:#a31f06;"/></svg>