<?xml version="1.0" standalone="no"?><!DOCTYPE svg PUBLIC "-//W3C//DTD SVG 1.1//EN" "http://www.w3.org/Graphics/SVG/1.1/DTD/svg11.dtd"><svg width="100%" height="100%" viewBox="0 0 25 25" version="1.1" xmlns="http://www.w3.org/2000/svg" xmlns:xlink="http://www.w3.org/1999/xlink" xml:space="preserve" style="fill-rule:evenodd;clip-rule:evenodd;stroke-linejoin:round;stroke-miterlimit:1.41421;"><path id="infoIcon" d="M12.5,0c-6.9,0 -12.5,5.6 -12.5,12.5c0,6.9 5.6,12.5 12.5,12.5c6.9,0 12.5,-5.6 12.5,-12.5c0,-6.9 -5.6,-12.5 -12.5,-12.5ZM12.5,24c-6.34,0 -11.5,-5.16 -11.5,-11.5c0,-6.34 5.16,-11.5 11.5,-11.5c6.34,0 11.5,5.16 11.5,11.5c0,6.34 -5.16,11.5 -11.5,11.5ZM12.22,8.55c0.34,0 0.62,-0.13 0.86,-0.4c0.23,-0.26 0.34,-0.57 0.34,-0.92c0,-0.32 -0.11,-0.59 -0.33,-0.83c-0.23,-0.24 -0.52,-0.36 -0.87,-0.36c-0.32,0 -0.59,0.13 -0.82,0.38c-0.24,0.26 -0.35,0.55 -0.35,0.89c0,0.33 0.11,0.61 0.35,0.86c0.23,0.25 0.5,0.38 0.82,0.38ZM13.86,18.42c-0.245,-0.1 -0.41,-0.248 -0.41,-0.99c0,0 0,-7.346 0,-7.46c0,-0.114 -0.13,-0.13 -0.13,-0.13l-2.94,0.2l0,0.62c0.19,0.01 0.884,0.015 1,0.2c0.116,0.185 0.124,0.371 0.13,0.54l0,6.14c0.011,0.213 0.016,0.858 -0.4,0.91c-0.149,0.019 -0.3,0.02 -0.44,0.03l0,0.62l3.62,0l0,-0.62c-0.16,-0.01 -0.319,-0.015 -0.43,-0.06Z" style="fill:#70519e;"/></svg>