<?xml version="1.0" encoding="UTF-8" standalone="no"?>
<svg
   xmlns:dc="http://purl.org/dc/elements/1.1/"
   xmlns:cc="http://creativecommons.org/ns#"
   xmlns:rdf="http://www.w3.org/1999/02/22-rdf-syntax-ns#"
   xmlns:svg="http://www.w3.org/2000/svg"
   xmlns="http://www.w3.org/2000/svg"
   xmlns:sodipodi="http://sodipodi.sourceforge.net/DTD/sodipodi-0.dtd"
   xmlns:inkscape="http://www.inkscape.org/namespaces/inkscape"
   version="1.1"
   id="svg4646"
   viewBox="0 0 30 30"
   height="30"
   width="30"
   inkscape:version="0.91 r13725"
   sodipodi:docname="effectory-logo-30x30.svg">
  <sodipodi:namedview
     pagecolor="#ffffff"
     bordercolor="#666666"
     borderopacity="1"
     objecttolerance="10"
     gridtolerance="10"
     guidetolerance="10"
     inkscape:pageopacity="1"
     inkscape:pageshadow="2"
     inkscape:window-width="1920"
     inkscape:window-height="1017"
     id="namedview22"
     showgrid="false"
     inkscape:zoom="7.8666667"
     inkscape:cx="15"
     inkscape:cy="13.792373"
     inkscape:window-x="-8"
     inkscape:window-y="-8"
     inkscape:window-maximized="1"
     inkscape:current-layer="svg4646" />
  <defs
     id="defs4648">
    <clipPath
       id="clipPath104"
       clipPathUnits="userSpaceOnUse">
      <path
         id="path106"
         d="m 981.289,453.353 704.705,0 0,140.175 -704.705,0 0,-140.175 z" />
    </clipPath>
    <clipPath
       id="clipPath92"
       clipPathUnits="userSpaceOnUse">
      <path
         id="path94"
         d="m 938.511,453.353 813.42,0 0,157.289 -813.42,0 0,-157.289 z" />
    </clipPath>
  </defs>
  <metadata
     id="metadata4651">
    <rdf:RDF>
      <cc:Work
         rdf:about="">
        <dc:format>image/svg+xml</dc:format>
        <dc:type
           rdf:resource="http://purl.org/dc/dcmitype/StillImage" />
        <dc:title></dc:title>
      </cc:Work>
    </rdf:RDF>
  </metadata>
  <g
     id="icon"
     transform="matrix(0.17793643,0,0,0.17793643,180.19476,-44.085833)">
    <g
       id="g88"
       transform="matrix(1.25,0,0,-1.25,-2215.6221,989.5196)">
      <g
         clip-path="url(#clipPath92)"
         id="g90">
        <g
           transform="translate(1029.8734,569.8897)"
           id="g96">
          <path
             id="path98"
             style="fill:#192743;fill-opacity:1;fill-rule:nonzero;stroke:none"
             d="m 0,0 c -11.079,0 -20.091,-9.013 -20.091,-20.091 0,-11.078 9.012,-20.091 20.091,-20.091 11.078,0 20.091,9.013 20.091,20.091 C 20.091,-9.013 11.078,0 0,0 m 0,-62.9 c -23.606,0 -42.81,19.204 -42.81,42.809 0,23.605 19.204,42.809 42.81,42.809 23.605,0 42.809,-19.204 42.809,-42.809 C 42.809,-43.696 23.605,-62.9 0,-62.9" />
        </g>
      </g>
    </g>
    <g
       id="g100"
       transform="matrix(1.25,0,0,-1.25,-2215.6221,989.5196)">
      <g
         clip-path="url(#clipPath104)"
         id="g102">
        <g
           transform="translate(1029.8734,568.9694)"
           id="g108">
          <path
             id="path110"
             style="fill:#192743;fill-opacity:1;fill-rule:nonzero;stroke:none"
             d="m 0,0 c -10.57,0 -19.171,-8.6 -19.171,-19.171 0,-10.571 8.601,-19.171 19.171,-19.171 10.571,0 19.171,8.6 19.171,19.171 C 19.171,-8.6 10.571,0 0,0 m 0,-40.181 c -11.586,0 -21.01,9.425 -21.01,21.01 0,11.586 9.424,21.01 21.01,21.01 11.585,0 21.01,-9.424 21.01,-21.01 0,-11.585 -9.425,-21.01 -21.01,-21.01 m 0,62.9 c -23.098,0 -41.89,-18.792 -41.89,-41.89 0,-23.098 18.792,-41.89 41.89,-41.89 23.098,0 41.89,18.792 41.89,41.89 0,23.098 -18.792,41.89 -41.89,41.89 m 0,-85.618 c -24.112,0 -43.729,19.617 -43.729,43.728 0,24.113 19.617,43.729 43.729,43.729 24.111,0 43.729,-19.616 43.729,-43.729 0,-24.111 -19.618,-43.728 -43.729,-43.728" />
        </g>
        <g
           transform="translate(1078.2791,466.1909)"
           id="g112">
          <path
             id="path114"
             style="fill:#192743;fill-opacity:1;fill-rule:nonzero;stroke:none"
             d="m 0,0 -96.283,0 c -0.391,0 -0.708,0.316 -0.708,0.708 l 0,13.899 c 0,6.004 4.868,10.871 10.871,10.871 l 76.086,0 C -4.493,25.478 0,20.986 0,15.445 L 0,0 Z" />
        </g>
      </g>
    </g>
    <g
       transform="matrix(1.25,0,0,-1.25,-989.0106,401.1751)"
       id="g124">
      <path
         id="path126"
         style="fill:#192743;fill-opacity:1;fill-rule:nonzero;stroke:none"
         d="M 0,0 0,-12.27 18.57,-0.764 1.018,-3.392" />
    </g>
  </g>
</svg>
